<svg fill="none" viewBox="0 0 40 40" xmlns="http://www.w3.org/2000/svg" width="40px" style="margin-right: 8px;"><rect width="40" height="40" rx="8" fill="#FAFAF9"></rect><g stroke="#44403C" stroke-width="2"><path d="M14 12.5c0-.465 0-.697.038-.89a2 2 0 011.572-1.572c.193-.038.425-.038.89-.038H20v.8c0 1.12 0 1.68-.218 2.108a2 2 0 01-.874.874C18.48 14 17.92 14 16.8 14h-3.6c-1.12 0-1.68 0-2.108.218a2 2 0 00-.874.874C10 15.52 10 16.08 10 17.2V20h.8c1.12 0 1.68 0 2.108-.218a2 2 0 00.874-.874C14 18.48 14 17.92 14 16.8v-1.3M27.5 14c.465 0 .697 0 .89.038a2 2 0 011.572 1.572c.038.193.038.425.038.89V20h-.8c-1.12 0-1.68 0-2.108-.218a2 2 0 01-.874-.874C26 18.48 26 17.92 26 16.8V13.2c0-1.12 0-1.68-.218-2.108a2 2 0 00-.874-.874C24.48 10 23.92 10 22.8 10H20v.8c0 1.12 0 1.68.218 2.108a2 2 0 00.874.874C21.52 14 22.08 14 23.2 14h1.3M26 27.5c0 .465 0 .697-.038.89a2 2 0 01-1.572 1.572c-.193.038-.425.038-.89.038H20v-.8c0-1.12 0-1.68.218-2.108a2 2 0 01.874-.874C21.52 26 22.08 26 23.2 26H26.8c1.12 0 1.68 0 2.108-.218a2 2 0 00.874-.874C30 24.48 30 23.92 30 22.8V20h-.8c-1.12 0-1.68 0-2.108.218a2 2 0 00-.874.874C26 21.52 26 22.08 26 23.2v1.3M12.5 26c-.465 0-.697 0-.89-.038a2 2 0 01-1.572-1.572C10 24.197 10 23.965 10 23.5V20h.8c1.12 0 1.68 0 2.108.218a2 2 0 01.874.874C14 21.52 14 22.08 14 23.2V26.8c0 1.12 0 1.68.218 2.108a2 2 0 00.874.874C15.52 30 16.08 30 17.2 30H20v-.8c0-1.12 0-1.68-.218-2.108a2 2 0 00-.874-.874C18.48 26 17.92 26 16.8 26h-1.3"></path></g></svg>